<svg id="Layer_1" data-name="Layer 1" xmlns="http://www.w3.org/2000/svg" viewBox="0 0 398 73.02"><defs><style>.cls-1{fill:#083b5d;}.cls-2{fill:#3aa5ed;}</style></defs><title>Artboard 1</title><path id="Igloo" class="cls-1" d="M177.36,30.94V66.53a5.65,5.65,0,0,1-5.65,5.66h0a5.66,5.66,0,0,1-5.66-5.66V30.94a5.66,5.66,0,0,1,5.66-5.65h0A5.65,5.65,0,0,1,177.36,30.94Zm37.94-6.48q8.13,0,18.66,8.32h0a2,2,0,0,1,.33,2.79,2.15,2.15,0,0,1-.66.54l-2.56,1.29-2.9,1.48a3,3,0,0,1-3-.2q-5.22-3.6-10-3.6c-8.21,0-13.93,5.73-13.93,13.52A13.82,13.82,0,0,0,215.3,62.46c5,0,9-1.58,11.52-3.93V54h-9.94a4.34,4.34,0,0,1-4.34-4.35h0a4.34,4.34,0,0,1,4.34-4.34h18a2,2,0,0,1,2,2V60.94a5,5,0,0,1-1.19,3.22Q228.07,73,215.37,73c-15.52,0-25.53-11.66-25.53-24.28C189.84,35.7,200.54,24.46,215.3,24.46ZM261,30.94V61.71h19.39A5.24,5.24,0,0,1,285.58,67h0a5.25,5.25,0,0,1-5.24,5.24H254.6a5,5,0,0,1-5-5V30.94a5.65,5.65,0,0,1,5.66-5.65h0A5.65,5.65,0,0,1,261,30.94Zm55.73-6.48a24.28,24.28,0,1,1-24.21,24.28A24.35,24.35,0,0,1,316.68,24.46Zm0,10.55a13.76,13.76,0,1,0,13.73,13.73A13.79,13.79,0,0,0,316.68,35Zm57.11-10.55a24.28,24.28,0,1,1-24.21,24.28A24.35,24.35,0,0,1,373.79,24.46Zm0,10.55a13.76,13.76,0,1,0,13.73,13.73A13.79,13.79,0,0,0,373.79,35Z"/><path class="cls-2" d="M7.28,72.19h0a64.91,64.91,0,0,1,129.82,0h7.28A72.19,72.19,0,0,0,0,72.19H7.28Z"/><path class="cls-2" d="M31.94,72.19h0a40.25,40.25,0,0,1,80.5,0h10.91A51.17,51.17,0,0,0,21,72.19H31.94Z"/><path class="cls-2" d="M72.19,44.19a28,28,0,0,0-28,28h56A28,28,0,0,0,72.19,44.19Z"/></svg>